<svg xmlns="http://www.w3.org/2000/svg" viewBox="0 0 147.63 116.35"><g id="Layer_2" data-name="Layer 2"><g id="Footer"><path d="M129.21,85.59c0-4.43-.08-5.52-.45-6s-.69-.61-1.67-.61h-1.23v13.4h1.23C129.1,92.35,129.21,92,129.21,85.59Z"/><path d="M57.18,85a4.27,4.27,0,0,0,1.34,0c1.65-.11,2-.72,2-3.23,0-1.37-.11-1.84-.56-2.29a2.28,2.28,0,0,0-2.79-.14c-.25.28-.31,1.17-.2,3C57.1,83.78,57.18,85,57.18,85Z"/><path d="M80,85l1.32.08c1.2.09,1.33,0,1.73-.75.67-1.25.58-4.07-.12-4.77s-2.7-.78-2.95-.2a19.2,19.2,0,0,0-.06,3Z"/><path d="M91.31,84.34c0,2.51,0,5.16.06,5.89.33,2.23,1.59,2.9,3,1.61.42-.36.47-1,.47-6,0-5.41-.14-6.44-.95-7a1.6,1.6,0,0,0-2,.34C91.53,79.7,91.42,80.46,91.31,84.34Z"/><path d="M26.18,73.93c-.59,0-3.3,0-6,0s-5.42,0-5.95,0-2,0-3.18,0c-3.4,0-3.24-.55-3.24,9.88,0,9.55.06,9.88,1.76,11.64a6.83,6.83,0,0,0,8,1.48l1.39-.67.78.61c.62.48,1.12.59,2.82.59a5.39,5.39,0,0,0,2.74-.45c.64-.42.75-.42,1.39,0s1.59.45,6.48.45c5.19,0,5.94-.08,7-.56,1.51-.7,1.73-.7,2.62,0,.67.53,1.12.56,7.79.56,5.8,0,7.17-.08,7.67-.42s.67-.36,1.4,0a7.42,7.42,0,0,0,2.9.42c1.73,0,2.26-.11,2.85-.56l.72-.58,1.31.61a7.42,7.42,0,0,0,6,0c1.57-.76,1.71-.76,2.38,0,.47.5.72.56,2.9.42a31.18,31.18,0,0,1,6.11,0c2.06.14,2.43.08,3.12-.42,1-.73,1.09-.73,2.4,0a5,5,0,0,0,3,.61c2.12,0,3.21-.42,4.35-1.62.81-.86,1.4-.92,2.1-.14,1.61,1.79,5.07,2.26,7.7,1.06l1.28-.61.78.61c1,.76,4.13.84,5.58.14.9-.42,1-.42,1.51,0s1.17.45,6.62.36c5.88-.08,6.11-.11,7.33-.78A8,8,0,0,0,134,92.29a44.69,44.69,0,0,0,.2-7.45c-.09-5.81-.14-6.39-.7-7.42a6.65,6.65,0,0,0-3.43-3.1c-1.12-.48-1.85-.53-7-.48-3.15,0-6.22.09-6.84.09s-3.43,0-6.28-.09l-5.16-.11,0-1c0-.53.25-3.35.5-6.25s.61-7,.73-9.07.3-4.16.42-4.66c.16-.86.22-.92,1.36-.92a3.83,3.83,0,0,0,1.62-.33,24.38,24.38,0,0,0,2-4.41c.86-2.24,2.31-6,3.21-8.24s2.34-6.08,3.23-8.37,1.79-4.69,2.07-5.3a15.7,15.7,0,0,0,.7-1.81c.22-.79,4.43-11.67,5-13,.2-.48.56-1.4.78-2.09s.5-1.48.62-1.76c.19-.45-.34-.48-8.71-.48-6,0-9,.12-9.21.31s-.47,0-.92-.59a4.73,4.73,0,0,0-5.58-1.25c-1.7.89-2,1.84-3.07,10.88-.5,4.36-.87,6.42-1.15,6.67s-.28.23-.3.14A12.66,12.66,0,0,1,97.53,21L97,19.93l-4.69-.09c-2.71,0-4.66-.16-4.66-.33A17.55,17.55,0,0,1,92,19.17c5-.08,5.08-.14,3.9-2.45l-.64-1.26-4.8-.08c-2.9,0-4.83-.17-4.83-.34s1.76-.28,4.47-.28c5.11,0,5.11,0,4.3-2.12s-.7-2.06-5.86-2.06c-3,0-4.58-.11-4.58-.31s.22-.25.5-.22,2.35,0,4.61,0l4.13,0-.17-.64c-.11-.34-.45-1.2-.75-1.93l-.56-1.34L87,6.06,82.19,6l-.42-.83c-1.17-2.35-1.65-2.85-3.13-3.32a4.11,4.11,0,0,0-4.49,1c-1,1-.81,1.4.25.56a6,6,0,0,1,1.76-.84c1.11-.3,3.24,0,3.24.39,0,.79-1.46,3.8-1.87,3.94a.75.75,0,0,0-.51.67c0,.39.45.64,2,1.09s2,.72,2.12,1.28A1.14,1.14,0,0,1,80,11.42c-.72,0-1.11.39-1.36,1.45-.14.64-.09.78.3.81l2.74.05c2.2.06,2.23.06,2.45.9.14.44.37,1.2.51,1.67a1.49,1.49,0,0,1-.31,1.59,2.85,2.85,0,0,0-.56,1.23.66.66,0,0,1-.53.58c-1,.26-1.59,2.74-.67,3.07a2.87,2.87,0,0,0,1.68-.47c1.2-.64,1.2-.64,2.2-.11a2.57,2.57,0,0,1,1.37,1.87c.67,2.29.78,3.24.42,3.68a3.6,3.6,0,0,0-.23,2c.09,1.59.06,1.62-.67,1.7s-.92.25-.5,1.29,1.31.95,2.32.16,1.5-.69,2.73.42a2.93,2.93,0,0,0,2,1c.89,0,1.87-.53,1.87-1,0-.14.36-.53.81-.84.61-.47.92-1.09,1.42-2.93a26,26,0,0,1,1.45-4c.73-1.43.84-2,.95-4.5a35.14,35.14,0,0,1,.42-4.35c.17-.84.42-2.46.56-3.6.7-6.17.7-6.22,1.62-7a3.59,3.59,0,0,1,3.54-.81c.87.39.84,1-.08,2.73l-.78,1.48.58.39.59.42-.53,3.13c-.56,3.12-.56,3.12,0,3.88a1.45,1.45,0,0,1,.3,1.56,23.05,23.05,0,0,0-.83,4.16,3.12,3.12,0,0,1-.42,1.36,1.29,1.29,0,0,0-.17,1.37c.22.56.09,1.29-.56,3.32a25.92,25.92,0,0,0-.81,3,1.89,1.89,0,0,1-.39,1,4.35,4.35,0,0,0-.72,3.46,4.71,4.71,0,0,1-.11,2.52,27,27,0,0,0-.45,4.82c0,3,0,3.3.53,3.55s.73,1.09,1,4.83a6.22,6.22,0,0,1-.33,3.4,3.68,3.68,0,0,1-.73,1.28,3.5,3.5,0,0,1-1-1,3,3,0,0,0-1.09-1,2.19,2.19,0,0,1-1-.56l-.67-.56.64-.5c.87-.67.53-.89-1.11-.7-1.37.17-1.4.17-2.91-1.33S93.74,49,94.47,48.09c.5-.67.53-1,0-1-.19,0-.5.25-.7.56-.28.47-.44.5-.89.27s-.56-.19-.56.48a6.31,6.31,0,0,1-2.26,4.18C87.93,54,85,54,83.64,52.61a2.5,2.5,0,0,0-1.2-.73c-.76,0-3.74-1.76-3.91-2.32s0-.8.84-.47,2.4.36,2.4,0c0-.17-.37-.28-.81-.28s-1.09-.33-1.93-1.23a5.82,5.82,0,0,0-1.64-1.34c-.73-.14-.79-1.45-.12-2.56l.59-1-.61-.39c-.37-.2-1-.53-1.4-.73-1-.42-1.09-1.45-.08-1.45.83,0,.89-.36.16-1.09a3.36,3.36,0,0,1-.64-.89c-.25-.7-.58,0-.89,1.9S74,42,72.64,43a4.23,4.23,0,0,0-1.73,1.81,43.49,43.49,0,0,0-.56,8.52c.06,1.31.06,3.43,0,4.71l-.08,2.35.7-.48a5.72,5.72,0,0,1,2.79-.44h2.12l.67,1.31A12.78,12.78,0,0,1,77.44,63a8.59,8.59,0,0,0,.62,1.79c.36.73.36.92-.09,1.87-.64,1.45-.3,1.67.81.59a3.15,3.15,0,0,1,1.26-.9c.16,0,.44.48.58,1.06A4,4,0,0,0,81.49,69a1,1,0,0,1,.42,1c-.14.42,0,.7.83,1.14s1,.7.81,1.48a2.47,2.47,0,0,1-.36,1,21.06,21.06,0,0,1-3.26,0c-3.05-.17-3.1-.2-4.13-1.15-.56-.53-1.4-1.28-1.87-1.7a2,2,0,0,1-.81-1.87c0-.61-.12-1.2-.28-1.28a1.23,1.23,0,0,1-.28-.87c0-.36-.09-.67-.23-.67s-.44-.44-.72-1c-.7-1.26-1.28-1.29-1.28,0a29.92,29.92,0,0,0,1.81,7.12c.22.47.39,1,.31,1.11a5,5,0,0,1-1.85.22,9.24,9.24,0,0,0-2.53.37c-.45.19-.9.3-.95.22a12.14,12.14,0,0,1,.14-2.34c.16-1.2.36-3.52.44-5.14A56,56,0,0,1,68.26,61c.22-1.53.53-6.06.7-10.05s.36-8.14.44-9.2a30.67,30.67,0,0,0-.22-5.11,17.31,17.31,0,0,1,.28-6.81c.36-2,.81-4.27,1-5.08a83.3,83.3,0,0,0,.83-8.54c.25-3.91.56-7.48.7-7.93.2-.61.17-.94-.14-1.28a1.72,1.72,0,0,1-.42-1c0-1.62-2.12-3.24-4.21-3.24-1.76,0-2.82.76-3.69,2.63L62.79,7h-3.6c-3.91,0-4.19.11-4.3,1.59l0,.78,3.9.14,3.91.14-.08.7c-.2,1.34-.42,1.4-4.83,1.4H53.61l-.48.86c-.25.47-.33,1-.19,1.12a23.82,23.82,0,0,0,4.69.3l4.46.09V16L57,16.1l-5.1.06-.42.84c-.87,1.7-.92,1.67,4.74,1.67H61.4v.84c0,1.17-.45,1.28-5.84,1.25H51l-.56-1.67c-.31-.92-1.12-2.82-1.76-4.19s-1.54-3.4-1.9-4.46C44,2.57,43.45,1.54,41.58.59A4.81,4.81,0,0,0,39.91,0c-1.48.09-3.83,1.48-3.6,2.18.08.22.44.08,1.09-.39a3.42,3.42,0,0,1,2.37-.7,4.3,4.3,0,0,1,1.9.36c.44.31.41.45-.37,2a8.74,8.74,0,0,1-1.45,2.15c-.53.39-.56.53-.25.89A1.47,1.47,0,0,0,40.66,7a5.94,5.94,0,0,1,3,1.4,1.54,1.54,0,0,1,0,1c-.14.48-.36.67-.83.67A2.43,2.43,0,0,0,41,11.89c0,.28-.25.36-.89.31s-.92-.23-1.09-1a4.71,4.71,0,0,0-.67-1.65A2.6,2.6,0,0,1,38,7.68c.16-1.06.08-1.2-.95-2.1-.62-.5-1.2-.83-1.31-.75a2.5,2.5,0,0,0,.14,1.28,3,3,0,0,1,.14,1.26c-.09.08-3.6.14-7.85.14-7.5,0-9.12.17-8.12.84a64.56,64.56,0,0,0,8.46.28h8l.53,1.28c1.08,2.51,1.59,2.34-7.12,2.34-6.64,0-7.67.06-7.67.42s1,.42,7.22.42c4,0,7.59.08,8,.17.67.14.89.42,1.4,1.78a3.87,3.87,0,0,1,.41,1.79c-.08.08-3.51.17-7.67.17-5.86,0-7.48.08-7.4.33s2,.39,7.79.5a77.35,77.35,0,0,1,8,.37c.37.22,1.34,3,1.12,3.18-.09.05-3.35.11-7.26.11-6,0-7.14,0-7.45.39s-.28.45,0,.56,3.66.17,7.65.19l7.25.09.34.7a8.71,8.71,0,0,1,.5,1.73l.19,1.06H35.58c-6.39,0-6.86,0-6.78.47s.7.5,7.23.59l7.11.05.76,1.57a4.1,4.1,0,0,1,.61,1.81,47,47,0,0,1-6.84.25c-6.3,0-7.47.14-6.83.78a23.65,23.65,0,0,0,4,.23c8.43,0,7.62-.06,9.24,1.39a4.69,4.69,0,0,1,1.42,1.79,7.92,7.92,0,0,0,1.37,2.26c2,2.62,2.51,4.55,1.36,5-.78.28-.44.48,1.93,1.12,1,.28,2.12.62,2.37.73s.53-.06.78-.9c.62-2-.19-3.6-.83-1.61-.37,1.11-1,1.17-1,.11a2.26,2.26,0,0,0-1.12-2.21,2.92,2.92,0,0,1-1.14-1.28,2.52,2.52,0,0,0-1-1.17c-.69-.17-1.89-2.43-2.09-4a3.91,3.91,0,0,0-.64-1.81,10,10,0,0,1-1-2.68,8.73,8.73,0,0,0-.78-2.43A3.73,3.73,0,0,1,43,23.39c.2-.36.06-.87-.44-1.82a5.78,5.78,0,0,1-.7-2.12,7.5,7.5,0,0,0-1-2.56c-1.08-2-1.2-2.79-.47-3.74.45-.56.81-.67,3-.81,2.88-.2,3-.11,3.58,2.12.33,1.28.3,1.5-.12,2.06a6,6,0,0,0-.67,1.23c-.11.36-.39.64-.58.64-.56,0-1,.9-1,2.07s.45,1.28,2,.44a4.74,4.74,0,0,1,1.42-.55c1.56,0,3.49,4.6,2.54,6a1.47,1.47,0,0,0-.17,1.54,5.59,5.59,0,0,1,.31,1.56c0,.59-.11.67-.72.53-.81-.14-1.09.28-.84,1.34.22.89,1.45.95,2.48.14s1.73-.7,2.43.28a2.83,2.83,0,0,0,2.65,1.14,5.9,5.9,0,0,0,2-1.56,5.38,5.38,0,0,0,1.79-3.27,20.37,20.37,0,0,1,1.31-3.62,6.68,6.68,0,0,0,.95-3.55,45.22,45.22,0,0,1,.84-7.28c.14-.7.39-2.65.58-4.33.37-3.46.73-4.38,2-5.16a2.52,2.52,0,0,1,2.93-.11c.59.39.9,1.78.39,1.78-.14,0-.44.53-.75,1.18-.47,1.09-.47,1.17,0,1.5s.45.53,0,3.49-.42,3.16,0,3.83a1.7,1.7,0,0,1,.17,1.7,21.27,21.27,0,0,0-.51,3A8.94,8.94,0,0,1,68,22.94a2.53,2.53,0,0,0-.22,1.59,4.78,4.78,0,0,1-.2,2c-.16.5-.55,1.79-.83,2.88a21.69,21.69,0,0,1-1.09,3.12c-.64,1.31-.73,2.09-.31,2.9.23.39.2.92-.14,2a19.39,19.39,0,0,0-.42,4.85c0,2.93.06,3.46.48,3.68s.78,1.76,1.09,5.42c.14,1.45.08,2-.28,2.48A2.55,2.55,0,0,0,65.58,55c0,.83-.81.55-1.42-.48a2.75,2.75,0,0,0-1.26-1.14,2.21,2.21,0,0,1-1-.59c-.28-.33-.25-.5.19-.81.76-.56.17-1.14-.69-.67s-1.73.17-3.3-1.42c-1.06-1.06-1.45-1.65-1.45-2.23a1.4,1.4,0,0,1,.28-1c.36-.22.36-1,0-1-.17,0-.36.25-.44.56-.17.67-.56.7-1.26.08-.47-.42-.5-.39-.5.78a6.06,6.06,0,0,1-.62,2.49,4,4,0,0,1-2.23,2,4.4,4.4,0,0,1-3.18.61,2.94,2.94,0,0,1-2.15-.86,4.11,4.11,0,0,0-1.7-.95c-1.73-.48-4.44-2.49-4-3,.08-.08.44,0,.81.17a3.84,3.84,0,0,0,1.75.25c1.09-.11.92-.31-.44-.62a3.51,3.51,0,0,1-1.54-1.25c-.56-.75-1.06-1.15-1.51-1.15-.61,0-.64-.08-.5-1.31.09-.75.31-1.39.59-1.53.7-.39.56-.62-1-1.37-1.09-.53-1.4-.81-1.4-1.34s.12-.61.56-.5c.81.19.9-.14.25-1.09A3.44,3.44,0,0,1,38,36.31c0-.61-.05-.64-2.28-.56-1.46.06-2.32.2-2.38.42s.48.36,1.93.42l2,.08-.09,1c-.17,2-.44,2.6-1.28,2.68-.53.06-.73.23-.62.51s-.27.78-.89,1.34c-1,.94-1,1-1.28,3.85a67.52,67.52,0,0,0-.2,9.23c.09,3.38.11,3.58.56,3.16S34.52,58,36,58c1.73,0,2.15.08,2.54.56a7.45,7.45,0,0,1,1.48,3.07,10.18,10.18,0,0,0,.61,1.84c.39.78.36.95-.17,2-.72,1.45-.19,1.65.9.33s1.87-1,1.87.53A1.85,1.85,0,0,0,44,67.45a1.89,1.89,0,0,1,.7,1.4A1.06,1.06,0,0,0,45.32,70c.64.28,1,1.29,1,2.85,0,.73-.09.75-1.71.92a4.05,4.05,0,0,0-2.29.7c-.55.47-.69.5-1.5.17-1.15-.48-1.17-1.06-.09-1.51s.84-.84-.39-.84a1.94,1.94,0,0,1-1.48-.64,16.66,16.66,0,0,0-1.56-1.31c-1.25-.89-2-2.18-1.73-3.15.11-.45.09-.76-.08-.76s-.34-.33-.42-.78a8.22,8.22,0,0,0-1.15-2.15c-1-1.36-1-1.36-1-.56a28.24,28.24,0,0,0,1.56,7.62,14.59,14.59,0,0,1,.87,3C35.22,73.68,29,73.93,26.18,73.93ZM18.36,93.21a6,6,0,0,1-1.89,1.59,4.4,4.4,0,0,1-4.72-.42c-1.62-1.25-1.7-1.73-1.7-10.41V76.13l1.34.09,1.31.08L12.78,84c0,5.08.17,7.78.36,8a2.18,2.18,0,0,0,2.52-.11c.3-.33.41-2.17.53-8l.14-7.56h2.51l.08,8C19,92.15,19,92.26,18.36,93.21ZM123.13,76.5c.22-.23,1.28-.34,2.93-.34,3,0,3.85.31,5,1.81l.75,1,0,6.5c0,6.34,0,6.51-.64,7.54-1,1.64-2.32,2.15-5.44,2.15-2.12,0-2.65-.09-2.79-.45s-.17-4.35-.17-9.15C122.79,79.15,122.87,76.75,123.13,76.5ZM111,76.36a4.28,4.28,0,0,1,1.67-.2h1.45l.48,1.59c.28.89.64,2.12.86,2.74s.65,2.06,1,3.21.73,2.51.87,3c.55,1.87.78.42.78-5V76.13l1.34.09,1.31.08.08,9.43.06,9.43-1.57-.08L117.74,95l-.92-2.79c-.5-1.54-1.26-3.88-1.68-5.22a12.86,12.86,0,0,0-1-2.57c-.31-.19-.59,3.38-.59,7.42v3.3h-1.23c-.81,0-1.28-.14-1.36-.39C110.73,94.13,110.73,76.58,111,76.36ZM93.49,29.25A7.54,7.54,0,0,1,90.7,29a8,8,0,0,1,2.79-.25c1.7,0,2.79.11,2.79.28S95.22,29.28,93.49,29.25Zm-4.19-5A17.92,17.92,0,0,1,93.68,24a38,38,0,0,1,4.25.12C97.67,24.34,89.3,24.48,89.3,24.23ZM107,47.16c.3,0,.47.06.36.14a.53.53,0,0,1-.53,0C106.6,47.25,106.69,47.16,107,47.16Zm-5.84,29c.81,0,1.26.11,1.26.34s0,3.37,0,7.06.08,7.08.19,7.53a1.7,1.7,0,0,0,2.32,1.2c.44-.14.84-.31.86-.31s.11-3.57.2-7.87l.17-7.81,1.34-.08,1.31-.09v8c0,7.39-.06,8.09-.53,8.9a4.73,4.73,0,0,1-6.56,1.43c-1.82-1.4-1.84-1.51-1.84-10.39v-8ZM99,56.35a.31.31,0,0,1,.31.3,1.47,1.47,0,0,0,.42.73c.56.53.39,1.06-.31,1.06-.42,0-.56-.22-.61-1.06C98.79,56.79,98.87,56.35,99,56.35Zm-26.76,1.2c-.73.19-1.48-.39-1.23-1s.48-.58,1.26-.19S73,57.35,72.28,57.55Zm6.25-3c-.67,1.26-1.09,1.37-2.15.56a31.81,31.81,0,0,1-4.55-5,3.69,3.69,0,0,1-.7-2.91c.09-2.09.51-2.84,2.13-3.65,1-.48,3.48-.81,3.48-.42a14.82,14.82,0,0,1-.44,1.42c-.64,1.9-.37,3,1.76,7.2l1,1.9Zm18.73,24c.36,1,.44,2.2.36,7.62-.09,7.23-.14,7.34-2.35,8.59a3.61,3.61,0,0,1-4,0c-2.38-1.2-2.38-1.22-2.38-9.09V78.76l.79-1a5.21,5.21,0,0,1,1.67-1.39A4.41,4.41,0,0,1,97.26,78.56ZM88.83,63.35A8.63,8.63,0,0,1,90,63.07a7.8,7.8,0,0,1,1.84,1.43c.9.8,1.9,1.67,2.26,1.92,1,.7.4,1-.8.39-.56-.31-1.12-.58-1.23-.64-.64-.31-.06.72,1,1.81a5.81,5.81,0,0,1,1.17,1.37,8.14,8.14,0,0,1-1.81-.72,10,10,0,0,0-2-.84c-.36,0,.06.75,1,1.73s.39,1-.84-.09-1.45-.94-.87.17c.67,1.29.2,1.4-1,.23-1.42-1.37-1.9-2.29-1.9-3.66A2.86,2.86,0,0,1,88.83,63.35ZM85.26,73c.27-.11.41-.56.41-1.4a5.42,5.42,0,0,1,.34-2c.17-.39.47-.7.67-.7.42,0,1.51,1.32,1.51,1.82a2,2,0,0,0,.69.92c.76.67,1,1.25.31,1a.48.48,0,0,0-.56.31c-.14.36-.47.45-1.62.39-1.39-.08-1.48,0-1.39.53s-.06.62-.34.62C84.7,74.49,84.7,73.2,85.26,73ZM77,85.68V76.16h3.16c4.94,0,5.77.84,5.77,5.78,0,2.4-.08,2.87-.69,4l-.7,1.23,1,3.71c.54,2.06,1,3.88,1,4s-.58.25-1.45.19L83.58,95l-.78-3.35a15.43,15.43,0,0,0-1.14-3.57,1.93,1.93,0,0,0-1-.14c-.7.08-.7.11-.84,3.57L79.67,95l-1.31.08L77,95.16ZM58.6,29.28c-.55.81-.69.83-2.62.83-2.2,0-2.68-.25-2.68-1.45v-.78h2.77a8.26,8.26,0,0,1,3,.28C59.11,28.33,58.94,28.83,58.6,29.28Zm1.62-4.72-.28.84-3.79-.09-3.8-.08-.19-.75a1.43,1.43,0,0,1,0-.9,51.4,51.4,0,0,1,8.23,0C60.45,23.67,60.39,24.11,60.22,24.56Zm6.23,53.92a4.35,4.35,0,0,1,1.73-1.9,4.07,4.07,0,0,1,4.57,0,5.11,5.11,0,0,1,2.24,4c.14,1.45-.23,2-1.43,2S72,82.13,72,80.85c0-1.9-2-2.93-2.9-1.56-.37.53-.45,1.61-.45,6.36,0,6.45.08,6.81,1.7,6.75,1.32,0,1.65-.64,1.65-3,0-2,0-2.07-.75-2.4s-.78-.56-.78-1.48V84.39l2.17-.08,2.15-.08v3.93c0,4.41-.19,5-1.79,6.28a4.25,4.25,0,0,1-4,.7,3.9,3.9,0,0,1-2.65-2.29c-.47-.92-.53-1.7-.53-7.09C65.86,80.18,65.92,79.59,66.45,78.48ZM35.13,56a1,1,0,0,1-.66.39,1.06,1.06,0,0,1-.87-1.26c.2-.53.45-.53,1.23,0C35.33,55.48,35.41,55.65,35.13,56Zm5.75-2.52a3.84,3.84,0,0,1-.86,1,9.43,9.43,0,0,1-2.62-2,5.25,5.25,0,0,0-1-1.34,19.36,19.36,0,0,1-2-2.43c-.89-1.28-.92-1.39-.72-3.12.22-2.12.81-3,2.48-3.58,1.42-.5,3.21-.53,3.21-.08A4,4,0,0,1,38.93,43c-.81,1.42-.28,3.71,1.93,8l.75,1.51ZM61.4,55.37c.44-.53.67-.53.44,0a.47.47,0,0,0,.25.59c.56.22.53,1.22,0,1.22S61,55.9,61.4,55.37Zm1.45,23.22c.47,1.06.55,1.7.44,3.74s-.22,2.59-.83,3.54L61.7,87l.53,2c.28,1.14.73,2.81,1,3.73a14.76,14.76,0,0,1,.45,2c0,.42-2.65.53-2.9.12a54,54,0,0,1-1.29-5.45,2.67,2.67,0,0,0-.58-1.31c-.59-.36-1.65-.3-1.68.09,0,.19,0,.55-.08.78S57,90.7,57,92.26l-.06,2.88H55.7c-.86,0-1.28-.14-1.39-.45-.23-.59-.23-18.11,0-18.33a13.15,13.15,0,0,1,3.13-.2C61,76.16,62,76.58,62.85,78.59ZM51.63,62c1.37-.37,1.34-.37,1.64.19A11.07,11.07,0,0,0,55.37,64c2.45,1.79,2.48,2.43.11,1.29-.64-.31-1.23-.51-1.28-.42s.55.84,1.45,1.7c1.67,1.65,1.89,2.26.5,1.26a3.11,3.11,0,0,0-1.26-.59,2.93,2.93,0,0,1-1.14-.59c-.59-.47-.84-.53-1.09-.25s-.11.5.61,1.12c1.12.95,1.09,1.73-.05.84a2,2,0,0,1-.75-1c0-.22-.12-.39-.28-.39-.39,0-.37.31.14,1.51s.39,1.23-.87.25C48.67,66.59,48.78,62.74,51.63,62Zm-3.18,6.67c.25-.62.55-1.12.69-1.12a2.77,2.77,0,0,1,1.37,1.39,4.58,4.58,0,0,0,.87,1.26c.81.89.83,1,.28,1-.34,0-.59.16-.59.39,0,.56-1.67.75-2.43.28S47.8,70.24,48.45,68.63Zm-1.18,3.76c.23-.61.65-.5.84.2.25,1,.22,1.06-.25,1.06S47,73,47.27,72.39Zm.87,3.77h4v2.76L49.62,79l-2.6.08v5l1.82.14,1.81.14V86.9L48.84,87,47,87.18v5l2.51.14,2.52.14.08,1.34.08,1.33-4-.08-4-.08-.08-9.44-.06-9.4ZM52,89.53c.08.14-.36.3-1,.36-1.32.14-2,0-1.71-.36A3.81,3.81,0,0,1,52,89.53ZM29.44,95.14H27.93l-1.42-4.55c-.78-2.49-1.67-5-2-5.64L24,83.83v5.22c0,2.85-.11,5.39-.2,5.64-.22.56-2.51.64-2.68.08a12.5,12.5,0,0,1,0-2c0-.92.08-5,.08-9.15l0-7.45h1.53c1,0,1.59.11,1.65.34s.36,1.22.7,2.31,1,3.49,1.62,5.36A14.7,14.7,0,0,0,28,87.6a38.67,38.67,0,0,0,.23-5.75V76.13l1.34.09,1.31.08.08,9.4L31,95.14Zm6.45-19c3.12,0,4.27.42,5.3,1.93.67,1,.67,1.06.67,7.36,0,5.78-.06,6.45-.56,7.43-.86,1.7-2.37,2.28-5.61,2.2L33.07,95,33,85.93c0-5,0-9.21.08-9.41S34,76.16,35.89,76.16Z"/><path d="M35.86,92.21l1.14.08c1,.08,1.26,0,1.76-.67s.59-1.06.59-6.14,0-5.44-.56-6-2.71-.78-3-.2c0,.2-.08,3.19,0,6.62Z"/><polygon points="0 116.35 0 116.35 147.63 116.35 147.63 116.35 73.81 116.35 0 116.35"/><path d="M79.37,42c-.76.55-.39.78,1,.55.7-.11,1.15-.33,1.15-.55C81.49,41.42,80.09,41.44,79.37,42Z"/><path d="M43,41.11c1.2-.2,1.45-.5.7-.78a1.86,1.86,0,0,0-1.87.22C41.08,41.08,41.58,41.33,43,41.11Z"/><path d="M75.35,7.51a3.53,3.53,0,0,1-1.28-1l-.95-1v.87c0,.89,1.39,4.94,4,11.75a56.9,56.9,0,0,1,2,6.14c.45,2.06,2.1,6.33,2.66,6.89.41.42.3-1.62-.14-2.23-.79-1.15-1.54-3.63-1.23-4.13a1,1,0,0,0-.14-1.12,9,9,0,0,1-.73-2.09,16.86,16.86,0,0,0-1.28-3.38c-1.09-2.09-1.15-2.48-.56-3.26s.5-1.23-.14-1.23c-.36,0-.67-.28-.86-.78s-.56-1.29-.84-1.93a3.52,3.52,0,0,1-.36-2.29C75.66,7.82,75.6,7.51,75.35,7.51Z"/><path d="M87.6,40.72c-.28,0-.7-.45-1-1.09s-.73-1.14-1.07-1.2c-.58-.08-1.75-2.15-1.81-3.15a7.22,7.22,0,0,0-.7-2,5.61,5.61,0,0,0-.83-1.45c-.09,0-.14.36-.14.84,0,.64-.14.83-.53.83-1,0-.87.45.28,1.57a8.26,8.26,0,0,1,1.64,2.28A13,13,0,0,0,85,39.66c1.23,1.42,1.65,3.37.84,4-.51.36-.51.39.25.67a9.94,9.94,0,0,0,1.53.47,17.74,17.74,0,0,1,1.84.56,3.42,3.42,0,0,0,1.2.31,8.56,8.56,0,0,0,.17-1.73c.06-1.9-.42-2.35-.92-.87-.17.56-.42,1-.56,1-.33,0-.64-1-.42-1.4S88.13,40.72,87.6,40.72Z"/></g></g></svg>