<svg xmlns="http://www.w3.org/2000/svg" viewBox="0 0 144.54 111.51"><defs><style>.cls-1{fill:#fff;fill-rule:evenodd;}</style></defs><g id="Layer_2" data-name="Layer 2"><g id="Header"><path class="cls-1" d="M32.07,105.44l1.31.1c1.12.09,1.44,0,2-.77s.67-1.21.67-7,0-6.22-.64-6.83S32.33,90,32,90.7c-.06.22-.09,3.63-.06,7.56Z"/><path class="cls-1" d="M138.82,97.88c0-5.08-.1-6.32-.51-6.9s-.8-.7-1.92-.7H135V105.6h1.4C138.69,105.6,138.82,105.15,138.82,97.88Z"/><path class="cls-1" d="M95.48,96.44c-.06,2.87-.06,5.9.07,6.73.38,2.56,1.82,3.32,3.47,1.85.48-.41.55-1.18.55-6.82,0-6.2-.16-7.38-1.09-8a1.81,1.81,0,0,0-2.26.38C95.74,91.14,95.61,92,95.48,96.44Z"/><path class="cls-1" d="M56.45,97.24a5.64,5.64,0,0,0,1.54,0c1.88-.13,2.33-.83,2.33-3.7,0-1.57-.13-2.11-.64-2.62-.77-.77-2.62-.86-3.19-.16-.29.32-.36,1.34-.23,3.41C56.36,95.8,56.45,97.17,56.45,97.24Z"/><path class="cls-1" d="M21,84.54c-.67,0-3.77,0-6.86,0s-6.19,0-6.8,0-2.23,0-3.64,0c-3.89,0-3.7-.64-3.7,11.3,0,10.91.07,11.3,2,13.31a7.81,7.81,0,0,0,9.1,1.69L12.7,110l.9.7c.7.55,1.27.67,3.22.67a6.2,6.2,0,0,0,3.13-.51c.73-.48.86-.48,1.59,0s1.82.51,7.41.51c5.93,0,6.79-.09,8-.63,1.72-.8,2-.8,3,0,.76.6,1.27.63,8.9.63,6.64,0,8.2-.09,8.78-.48s.76-.41,1.59,0a8.45,8.45,0,0,0,3.32.48c2,0,2.59-.12,3.26-.63l.83-.68,1.5.71a8.41,8.41,0,0,0,6.86,0c1.78-.86,1.94-.86,2.71,0,.54.57.83.64,3.32.48a35.49,35.49,0,0,1,7,0c2.36.16,2.77.09,3.57-.48,1.12-.83,1.25-.83,2.75,0a5.62,5.62,0,0,0,3.44.7c2.43,0,3.67-.48,5-1.85.93-1,1.6-1.05,2.39-.16,1.85,2,5.81,2.59,8.81,1.21l1.47-.7.89.7c1.09.86,4.73,1,6.39.16,1-.48,1.14-.48,1.72,0s1.34.52,7.56.42c6.74-.1,7-.13,8.39-.89a9.17,9.17,0,0,0,3.87-4.85A51.8,51.8,0,0,0,144.5,97c-.1-6.63-.16-7.3-.8-8.48A7.63,7.63,0,0,0,139.78,85c-1.28-.54-2.11-.6-8-.54-3.61,0-7.12.1-7.82.1s-3.93,0-7.18-.1l-5.9-.13,0-1.08c0-.61.29-3.83.57-7.15s.7-8,.83-10.37.35-4.76.48-5.33c.19-1,.26-1.05,1.56-1.05a4.13,4.13,0,0,0,1.86-.39,27.18,27.18,0,0,0,2.32-5c1-2.55,2.65-6.8,3.67-9.41s2.69-7,3.71-9.58,2-5.36,2.36-6.06a19.46,19.46,0,0,0,.8-2.07c.25-.9,5.07-13.34,5.74-14.84.22-.55.64-1.6.89-2.4s.58-1.69.71-2c.22-.51-.39-.54-10-.54-6.86,0-10.31.13-10.53.35s-.54,0-1.06-.67a5.38,5.38,0,0,0-6.38-1.43c-1.94,1-2.26,2.1-3.51,12.44-.57,5-1,7.34-1.31,7.63-.16.16-.32.25-.35.16s-.38-.7-.73-1.41L102,22.79l-5.36-.1c-3.1,0-5.33-.19-5.33-.38s2.14-.35,5-.38c5.75-.1,5.81-.16,4.47-2.81l-.73-1.44-5.49-.09c-3.32,0-5.52-.2-5.52-.39s2-.32,5.1-.32c5.84,0,5.84,0,4.92-2.42s-.8-2.36-6.71-2.36c-3.47,0-5.23-.13-5.23-.35s.26-.29.58-.26,2.68,0,5.26,0l4.72,0-.19-.74c-.12-.38-.51-1.37-.86-2.2L96,7,90.5,6.93l-5.45-.1-.48-1C83.23,3.19,82.69,2.62,81,2.08a4.7,4.7,0,0,0-5.13,1.11c-1.12,1.15-.93,1.6.28.64a7,7,0,0,1,2-1c1.28-.35,3.71,0,3.71.45,0,.89-1.66,4.34-2.14,4.5a.87.87,0,0,0-.58.77c0,.44.51.73,2.24,1.24s2.26.83,2.42,1.47a1.3,1.3,0,0,1-1.31,1.75c-.83,0-1.27.45-1.56,1.66-.16.74-.1.9.35.93l3.13.06c2.52.07,2.55.07,2.81,1,.16.51.41,1.38.57,1.92a1.71,1.71,0,0,1-.35,1.82,3.27,3.27,0,0,0-.64,1.4.76.76,0,0,1-.6.67c-1.18.29-1.82,3.13-.77,3.51a3.31,3.31,0,0,0,1.91-.54c1.38-.73,1.38-.73,2.53-.13a2.92,2.92,0,0,1,1.56,2.14c.77,2.62.89,3.7.48,4.21a4.15,4.15,0,0,0-.26,2.3c.1,1.82.07,1.85-.76,1.95-1,.12-1.06.28-.58,1.47.39,1,1.5,1.08,2.65.19s1.72-.8,3.13.48a3.37,3.37,0,0,0,2.3,1.11c1,0,2.13-.6,2.13-1.18,0-.16.42-.6.93-1,.7-.54,1-1.24,1.63-3.35a28.33,28.33,0,0,1,1.66-4.53c.83-1.63,1-2.3,1.08-5.14a41.13,41.13,0,0,1,.48-5c.19-1,.48-2.81.64-4.12.8-7,.8-7.12,1.85-8a4.15,4.15,0,0,1,4-.93c1,.45,1,1.09-.09,3.13l-.9,1.69.67.45.67.48-.6,3.57c-.64,3.57-.64,3.57,0,4.44a1.66,1.66,0,0,1,.35,1.78,25.67,25.67,0,0,0-1,4.76,3.5,3.5,0,0,1-.48,1.56,1.49,1.49,0,0,0-.19,1.57c.26.63.1,1.46-.64,3.79a27.59,27.59,0,0,0-.92,3.45,2.24,2.24,0,0,1-.45,1.12,5,5,0,0,0-.83,4,5.26,5.26,0,0,1-.13,2.88,32.7,32.7,0,0,0-.51,5.52c0,3.38,0,3.76.61,4s.83,1.24,1.18,5.52a7.12,7.12,0,0,1-.38,3.89,4.16,4.16,0,0,1-.83,1.47A4.12,4.12,0,0,1,107.32,64c-.48-.6-1-1.11-1.24-1.11A2.59,2.59,0,0,1,105,62.2l-.77-.64.74-.57c1-.77.6-1-1.28-.8-1.56.19-1.59.19-3.32-1.53S98.26,56.07,99.09,55c.57-.77.6-1.09.06-1.09-.22,0-.57.29-.8.64-.31.54-.51.57-1,.32s-.63-.22-.63.54a7.23,7.23,0,0,1-2.59,4.79c-2.49,1.53-5.87,1.5-7.4,0a2.83,2.83,0,0,0-1.38-.83c-.86,0-4.27-2-4.46-2.65-.26-.8,0-.93.95-.54s2.75.41,2.75,0c0-.2-.42-.32-.93-.32-.67,0-1.24-.39-2.2-1.41a6.57,6.57,0,0,0-1.88-1.53c-.83-.16-.9-1.66-.13-2.94l.67-1.08-.7-.45c-.42-.22-1.12-.6-1.6-.83-1.18-.48-1.24-1.66-.09-1.66,1,0,1-.41.19-1.24a3.65,3.65,0,0,1-.74-1c-.28-.8-.67,0-1,2.17s-.41,2.2-2,3.28a5,5,0,0,0-2,2.08,49.2,49.2,0,0,0-.63,9.73c.06,1.5.06,3.93,0,5.4L71.45,69l.8-.55a6.45,6.45,0,0,1,3.19-.51h2.43l.76,1.5a14.68,14.68,0,0,1,1,2.65,10.65,10.65,0,0,0,.7,2c.42.83.42,1.06-.09,2.14-.74,1.66-.35,1.92.92.67a3.81,3.81,0,0,1,1.44-1c.19,0,.51.54.67,1.21a4.62,4.62,0,0,0,1,1.76,1.07,1.07,0,0,1,.48,1.18c-.16.48.06.8,1,1.31s1.11.8.92,1.69a2.87,2.87,0,0,1-.41,1.18,23,23,0,0,1-3.74,0C79,84,78.92,84,77.74,82.91c-.64-.61-1.6-1.47-2.14-2a2.37,2.37,0,0,1-.92-2.13c0-.71-.13-1.38-.32-1.47a1.4,1.4,0,0,1-.32-1c0-.42-.1-.77-.26-.77s-.51-.51-.83-1.12c-.8-1.43-1.47-1.46-1.47,0a34,34,0,0,0,2.08,8.14c.25.54.45,1.12.35,1.28a5.82,5.82,0,0,1-2.11.25,10.46,10.46,0,0,0-2.9.42c-.51.22-1,.35-1.09.25A14.81,14.81,0,0,1,68,82.11c.2-1.37.42-4,.51-5.87s.36-4.79.64-6.54.61-6.93.8-11.49.42-9.32.51-10.53a35.5,35.5,0,0,0-.25-5.84c-.39-3.38-.35-3.89.32-7.79.41-2.26.92-4.88,1.14-5.81a92.64,92.64,0,0,0,1-9.76c.29-4.47.64-8.55.8-9.06.22-.71.19-1.09-.16-1.47a1.93,1.93,0,0,1-.48-1.09c0-1.85-2.42-3.7-4.82-3.7-2,0-3.22.86-4.21,3L62.87,8H58.75c-4.47,0-4.79.13-4.91,1.82l-.07.89,4.47.16,4.47.16-.1.8c-.22,1.53-.48,1.59-5.52,1.59H52.37l-.54,1c-.29.55-.39,1.12-.23,1.28A27.66,27.66,0,0,0,57,16l5.11.1v2.23l-5.81.1-5.84.06-.48,1c-1,1.94-1,1.91,5.43,1.91h5.9v1c0,1.34-.51,1.47-6.67,1.43H49.37l-.64-1.91c-.35-1-1.28-3.22-2-4.79s-1.75-3.89-2.17-5.1c-3.16-9-3.8-10.18-5.93-11.27A5.78,5.78,0,0,0,36.7,0C35,.1,32.33,1.69,32.58,2.49c.1.26.51.1,1.25-.45a4,4,0,0,1,2.71-.79,4.86,4.86,0,0,1,2.17.41c.51.35.48.51-.41,2.3a10.69,10.69,0,0,1-1.66,2.46c-.61.44-.64.6-.29,1A1.73,1.73,0,0,0,37.56,8,7,7,0,0,1,41,9.54a1.87,1.87,0,0,1,0,1.15.88.88,0,0,1-1,.77A2.77,2.77,0,0,0,38,13.6c0,.32-.29.41-1,.35s-1.06-.26-1.25-1.12A5.47,5.47,0,0,0,35,11a2.91,2.91,0,0,1-.39-2.17c.19-1.21.1-1.37-1.08-2.4-.7-.57-1.37-1-1.5-.86A3,3,0,0,0,32.14,7a3.48,3.48,0,0,1,.16,1.44c-.1.09-4.12.16-9,.16-8.59,0-10.44.19-9.29.95.29.2,4.18.32,9.67.32H32.9l.61,1.47C34.75,14.2,35.33,14,25.37,14c-7.59,0-8.77.07-8.77.48s1.11.48,8.26.48c4.53,0,8.68.09,9.19.19.77.16,1,.48,1.6,2a4.71,4.71,0,0,1,.48,2.05c-.1.09-4,.19-8.78.19-6.7,0-8.55.09-8.46.38s2.3.45,8.91.57a87.82,87.82,0,0,1,9.12.42c.42.25,1.54,3.38,1.28,3.64-.1.06-3.83.12-8.3.12-6.89,0-8.17,0-8.52.45s-.32.51,0,.64,4.18.19,8.75.22l8.3.1.38.8a9.34,9.34,0,0,1,.57,2L39.64,30H31.75c-7.3,0-7.85,0-7.75.54s.8.57,8.26.67l8.14.06L41.26,33A5,5,0,0,1,42,35.11a54.47,54.47,0,0,1-7.82.28c-7.21,0-8.56.16-7.82.9a28.15,28.15,0,0,0,4.56.25c9.64.07,8.71-.06,10.57,1.6a5.28,5.28,0,0,1,1.62,2,8.88,8.88,0,0,0,1.57,2.58c2.26,3,2.87,5.21,1.56,5.68-.89.32-.51.55,2.2,1.28,1.18.32,2.43.7,2.71.83s.61-.06.9-1c.7-2.33-.23-4.12-1-1.85-.41,1.28-1.12,1.34-1.12.13a2.57,2.57,0,0,0-1.27-2.52,3.32,3.32,0,0,1-1.31-1.47,2.88,2.88,0,0,0-1.15-1.34c-.8-.19-2.17-2.78-2.39-4.53a4.54,4.54,0,0,0-.74-2.08A11.51,11.51,0,0,1,42,32.81,9.78,9.78,0,0,0,41.1,30a4.25,4.25,0,0,1-.86-3.29c.23-.41.07-1-.51-2.07a6.75,6.75,0,0,1-.8-2.43,8.66,8.66,0,0,0-1.11-2.93c-1.25-2.23-1.37-3.19-.55-4.28.52-.64.93-.76,3.45-.92,3.29-.23,3.42-.13,4.09,2.42.38,1.47.35,1.73-.13,2.36a6.36,6.36,0,0,0-.77,1.41c-.13.41-.44.73-.67.73-.64,0-1.11,1-1.11,2.36s.51,1.47,2.33.51a5.15,5.15,0,0,1,1.62-.63c1.79,0,4,5.26,2.91,6.92A1.64,1.64,0,0,0,48.8,32a6.57,6.57,0,0,1,.35,1.78c0,.67-.13.77-.83.61-.93-.16-1.25.32-1,1.53.25,1,1.66,1.09,2.84.16s2-.8,2.78.32a3.24,3.24,0,0,0,3,1.31,6.75,6.75,0,0,0,2.23-1.79,6.09,6.09,0,0,0,2-3.73A24,24,0,0,1,61.78,28a7.68,7.68,0,0,0,1.09-4,52.24,52.24,0,0,1,1-8.33c.16-.8.44-3,.67-4.95.41-4,.83-5,2.29-5.9a2.88,2.88,0,0,1,3.35-.13c.67.45,1,2,.45,2-.16,0-.51.61-.86,1.34-.54,1.25-.54,1.34,0,1.73s.51.6,0,4-.48,3.61,0,4.38A1.91,1.91,0,0,1,70,20a24.19,24.19,0,0,0-.57,3.39,10.53,10.53,0,0,1-.61,2.8,2.85,2.85,0,0,0-.25,1.82,5.48,5.48,0,0,1-.23,2.3c-.19.57-.63,2-1,3.29a25.35,25.35,0,0,1-1.25,3.57c-.73,1.5-.83,2.4-.35,3.32.26.45.22,1-.16,2.27a22.22,22.22,0,0,0-.48,5.55c0,3.35.07,4,.54,4.21s.9,2,1.25,6.19c.16,1.66.09,2.3-.32,2.84a2.83,2.83,0,0,0-.51,1.31c0,1-.93.64-1.63-.54A3.19,3.19,0,0,0,63,61.05a2.51,2.51,0,0,1-1.15-.67c-.32-.38-.29-.57.22-.93.86-.63.19-1.3-.8-.76s-2,.19-3.76-1.63c-1.22-1.21-1.66-1.88-1.66-2.55a1.63,1.63,0,0,1,.32-1.09c.41-.25.41-1.11,0-1.11-.19,0-.41.28-.51.63-.19.77-.63.8-1.43.1-.54-.48-.58-.45-.58.89a6.91,6.91,0,0,1-.7,2.84,4.44,4.44,0,0,1-2.55,2.3,5.06,5.06,0,0,1-3.64.7,3.33,3.33,0,0,1-2.46-1,4.77,4.77,0,0,0-1.94-1.08c-2-.54-5.08-2.84-4.53-3.38.09-.1.51,0,.92.19a4.36,4.36,0,0,0,2,.29c1.25-.13,1.05-.36-.51-.71a3.92,3.92,0,0,1-1.75-1.43c-.64-.86-1.22-1.31-1.73-1.31-.7,0-.73-.1-.57-1.5.09-.86.35-1.6.67-1.76.8-.44.64-.7-1.09-1.56-1.24-.61-1.59-.93-1.59-1.53s.13-.7.64-.58c.92.23,1-.16.28-1.24a3.91,3.91,0,0,1-.6-1.66c0-.7-.07-.73-2.62-.64-1.66.07-2.65.22-2.71.48s.54.42,2.2.48l2.33.09-.1,1.19c-.19,2.29-.51,3-1.46,3.06-.61.06-.83.25-.71.57s-.32.9-1,1.54c-1.15,1.08-1.18,1.14-1.47,4.4a76.31,76.31,0,0,0-.22,10.56c.1,3.86.13,4.09.64,3.61s1.21-.51,2.93-.51c2,0,2.46.09,2.91.64a8.64,8.64,0,0,1,1.69,3.51,12.32,12.32,0,0,0,.7,2.1c.45.9.42,1.09-.19,2.3-.83,1.66-.22,1.88,1,.38s2.14-1.15,2.14.61a2.12,2.12,0,0,0,.8,1.24,2.17,2.17,0,0,1,.8,1.6A1.22,1.22,0,0,0,42.89,80c.74.31,1.15,1.46,1.15,3.25,0,.83-.1.86-1.95,1a4.54,4.54,0,0,0-2.61.8c-.64.54-.8.58-1.73.19-1.3-.54-1.34-1.21-.09-1.72s1-1-.45-1a2.18,2.18,0,0,1-1.69-.73,19.25,19.25,0,0,0-1.79-1.5c-1.43-1-2.23-2.49-2-3.61.13-.51.1-.86-.09-.86s-.38-.38-.48-.89a9.84,9.84,0,0,0-1.31-2.46C28.75,71,28.72,71,28.72,71.93a32.25,32.25,0,0,0,1.79,8.71,16.81,16.81,0,0,1,1,3.45C31.34,84.25,24.22,84.54,21,84.54Zm-8.94,22a6.94,6.94,0,0,1-2.17,1.82,5,5,0,0,1-5.39-.48c-1.85-1.44-1.95-2-1.95-11.9v-9l1.54.09,1.5.1L5.68,96c0,5.81.19,8.91.42,9.19A2.5,2.5,0,0,0,9,105.06c.35-.39.48-2.49.61-9.16l.15-8.65h2.88l.09,9.13C12.77,105.38,12.77,105.5,12.06,106.59Zm119.8-19.12c.26-.25,1.47-.38,3.35-.38,3.42,0,4.41.35,5.72,2.07l.86,1.12,0,7.44c0,7.24,0,7.43-.74,8.61-1.14,1.89-2.64,2.46-6.22,2.46-2.42,0-3-.1-3.19-.51s-.19-5-.19-10.47C131.48,90.5,131.57,87.76,131.86,87.47ZM118,87.31a5.39,5.39,0,0,1,1.91-.22h1.66l.55,1.82c.31,1,.73,2.42,1,3.13s.74,2.36,1.12,3.67.83,2.87,1,3.44c.64,2.14.89.48.89-5.71V87.06l1.54.09,1.5.1L129.18,98l.07,10.78-1.79-.09-1.76-.1-1-3.19c-.57-1.76-1.44-4.44-1.91-6a14.49,14.49,0,0,0-1.12-2.93c-.35-.23-.67,3.86-.67,8.48v3.77h-1.41c-.92,0-1.46-.16-1.56-.45C117.69,107.64,117.69,87.57,118,87.31ZM98,33.45a8.68,8.68,0,0,1-3.19-.32A9.08,9.08,0,0,1,98,32.84c2,0,3.19.13,3.19.32S100,33.48,98,33.45ZM93.18,27.7c0-.16,2.08-.29,5-.29a47.41,47.41,0,0,1,4.86.13C102.76,27.83,93.18,28,93.18,27.7Zm20.24,26.23c.35,0,.54.07.41.16a.63.63,0,0,1-.6,0C113,54,113.07,53.93,113.42,53.93Zm-6.67,33.16c.92,0,1.43.13,1.43.38s0,3.86,0,8.08.09,8.1.22,8.61a1.94,1.94,0,0,0,2.65,1.38c.51-.16,1-.36,1-.36s.12-4.08.22-9l.19-8.94,1.53-.1,1.5-.09v9.19c0,8.46-.06,9.25-.6,10.18a5.4,5.4,0,0,1-7.5,1.63c-2.08-1.6-2.11-1.73-2.11-11.87v-9.1Zm-2.43-22.66a.35.35,0,0,1,.35.35,1.73,1.73,0,0,0,.48.83c.64.61.45,1.22-.35,1.22-.48,0-.64-.26-.7-1.22C104,64.94,104.13,64.43,104.32,64.43ZM73.72,65.8c-.83.23-1.69-.44-1.41-1.14s.55-.67,1.44-.23S74.52,65.58,73.72,65.8Zm7.15-3.41c-.77,1.44-1.25,1.56-2.46.64a35.68,35.68,0,0,1-5.2-5.78c-.77-1.11-.86-1.53-.8-3.32.1-2.39.57-3.25,2.43-4.18,1.11-.54,4-.92,4-.48a17,17,0,0,1-.51,1.63c-.73,2.17-.41,3.45,2,8.24l1.12,2.17Zm21.41,27.44c.41,1.15.51,2.53.41,8.72-.09,8.26-.16,8.39-2.68,9.83a4.16,4.16,0,0,1-4.59,0C92.71,107,92.71,107,92.71,98V90.06l.89-1.18a6.23,6.23,0,0,1,1.91-1.6A5,5,0,0,1,102.28,89.83ZM92.64,72.44A10.21,10.21,0,0,1,94,72.12a9.53,9.53,0,0,1,2.11,1.63c1,.93,2.17,1.92,2.58,2.2,1.15.8.45,1.12-.92.45-.64-.35-1.28-.67-1.41-.73-.73-.36-.06.83,1.18,2.07a6.63,6.63,0,0,1,1.34,1.56,8.89,8.89,0,0,1-2.07-.83,12,12,0,0,0-2.33-1c-.42,0,.06.86,1.15,2s.44,1.11-1-.1-1.66-1.09-1,.19c.77,1.47.22,1.6-1.15.26-1.62-1.57-2.17-2.62-2.17-4.18A3.29,3.29,0,0,1,92.64,72.44Zm-4.08,11c.32-.13.48-.64.48-1.59a6.41,6.41,0,0,1,.38-2.27c.19-.45.54-.8.77-.8.47,0,1.72,1.5,1.72,2.08a2.3,2.3,0,0,0,.8,1c.86.77,1.08,1.44.35,1.15a.52.52,0,0,0-.64.35c-.16.42-.54.51-1.85.45-1.6-.1-1.69,0-1.6.6s-.06.71-.38.71C87.92,85.18,87.92,83.71,88.56,83.45ZM79.14,98V87.09h3.61c5.65,0,6.61,1,6.61,6.61,0,2.74-.1,3.28-.8,4.53l-.8,1.4,1.12,4.25c.6,2.36,1.11,4.43,1.11,4.62s-.67.29-1.66.23l-1.69-.1-.89-3.83a17.17,17.17,0,0,0-1.31-4.08,2.3,2.3,0,0,0-1.15-.16c-.8.09-.8.12-1,4.08l-.15,4-1.5.1-1.54.09ZM58.08,33.48c-.64.92-.8,1-3,1-2.52,0-3.06-.29-3.06-1.66v-.9h3.16a9.66,9.66,0,0,1,3.38.32C58.66,32.39,58.46,33,58.08,33.48Zm1.85-5.4-.32,1L55.27,29l-4.34-.1L50.71,28a1.5,1.5,0,0,1,0-1,56.86,56.86,0,0,1,9.41,0C60.19,27.06,60.12,27.57,59.93,28.08Zm7.12,61.66a5,5,0,0,1,2-2.17,4.68,4.68,0,0,1,5.23,0,5.86,5.86,0,0,1,2.55,4.53c.16,1.66-.25,2.3-1.62,2.3s-1.79-.51-1.79-2c0-2.17-2.23-3.35-3.32-1.79-.41.61-.51,1.86-.51,7.28,0,7.37.1,7.79,2,7.72,1.5,0,1.88-.73,1.88-3.44,0-2.24,0-2.36-.86-2.75s-.9-.64-.9-1.69V96.5l2.49-.09,2.46-.1v4.5c0,5-.22,5.78-2,7.18a4.84,4.84,0,0,1-4.53.8,4.46,4.46,0,0,1-3-2.62c-.54-1-.6-1.94-.6-8.1C66.38,91.69,66.44,91,67.05,89.74ZM31.24,64a1.15,1.15,0,0,1-.76.44,1.2,1.2,0,0,1-1-1.43c.22-.61.51-.61,1.4,0C31.47,63.44,31.56,63.63,31.24,64Zm6.58-2.88a4.44,4.44,0,0,1-1,1.09,10.8,10.8,0,0,1-3-2.24,6,6,0,0,0-1.18-1.53,22.52,22.52,0,0,1-2.27-2.77c-1-1.47-1.05-1.6-.83-3.58.26-2.42.93-3.41,2.84-4.08,1.63-.58,3.67-.61,3.67-.1a4.06,4.06,0,0,1-.48,1.21c-.92,1.63-.32,4.25,2.21,9.2L38.65,60Zm23.45,2.21c.51-.61.77-.61.51,0a.53.53,0,0,0,.29.67c.64.25.61,1.4,0,1.4S60.76,63.92,61.27,63.32Zm1.66,26.55c.54,1.21.64,1.94.51,4.27s-.25,3-.95,4.06l-.87,1.27.61,2.33c.32,1.31.83,3.22,1.09,4.28a16.83,16.83,0,0,1,.51,2.3c0,.47-3,.6-3.32.12A62.58,62.58,0,0,1,59,102.28a3,3,0,0,0-.67-1.5c-.67-.41-1.88-.35-1.92.1,0,.22-.06.63-.09.89s-.1,2-.13,3.73l-.06,3.29H54.76c-1,0-1.47-.16-1.59-.51-.26-.67-.26-20.71,0-21a16.24,16.24,0,0,1,3.57-.22C60.86,87.09,61.91,87.57,62.93,89.87Zm-12.83-19c1.57-.42,1.54-.42,1.89.22a13.06,13.06,0,0,0,2.39,2.11c2.81,2,2.84,2.77.13,1.46-.74-.35-1.41-.57-1.47-.47s.64,1,1.66,1.94c1.91,1.89,2.17,2.59.57,1.44a3.65,3.65,0,0,0-1.43-.67,3.34,3.34,0,0,1-1.31-.67c-.67-.54-1-.61-1.25-.29s-.12.58.71,1.28c1.27,1.08,1.24,2-.07,1A2.2,2.2,0,0,1,51.06,77c0-.26-.13-.45-.32-.45-.45,0-.41.35.16,1.72s.45,1.41-1,.29C46.72,76.14,46.85,71.74,50.1,70.85Zm-3.63,7.62c.28-.7.63-1.27.79-1.27a3.16,3.16,0,0,1,1.57,1.59,5.14,5.14,0,0,0,1,1.44c.92,1,1,1.12.32,1.12-.39,0-.67.19-.67.44,0,.64-1.92.86-2.78.32S45.73,80.32,46.47,78.47Zm-1.34,4.31c.25-.7.73-.57.95.23.29,1.08.26,1.21-.28,1.21S44.84,83.45,45.13,82.78Zm1,4.31h4.63v3.16l-2.93.1-3,.09v5.75l2.07.15L49,96.5v2.88l-2.08.16-2.07.16v5.74l2.87.16,2.87.16.1,1.53.09,1.53-4.56-.09-4.56-.1-.1-10.79-.06-10.75Zm3.26,15.7c-1.5.16-2.23,0-1.95-.41s2.91-.39,3.13,0C50.65,102.54,50.14,102.73,49.37,102.79Zm-24.64,6H23l-1.63-5.2c-.89-2.84-1.91-5.75-2.23-6.45l-.61-1.27v6c0,3.26-.13,6.16-.22,6.45-.26.64-2.87.73-3.06.1a13,13,0,0,1-.07-2.3c0-1.06.1-5.75.1-10.47l0-8.52h1.75c1.15,0,1.82.13,1.89.38s.41,1.41.8,2.65,1.18,4,1.85,6.13A16.28,16.28,0,0,0,23,100.17a43.67,43.67,0,0,0,.26-6.57V87.06l1.53.09,1.5.1L26.42,98l.07,10.79Zm7.38-21.7c3.57,0,4.88.48,6.06,2.2.76,1.12.76,1.21.76,8.43,0,6.6-.06,7.37-.63,8.49-1,1.94-2.72,2.61-6.42,2.52l-3-.1-.09-10.37c0-5.71,0-10.53.09-10.75S29.94,87.09,32.11,87.09Z"/><path class="cls-1" d="M82.49,97.14l1.5.1c1.38.09,1.54,0,2-.86.77-1.44.67-4.66-.13-5.46s-3.09-.89-3.38-.22a24.76,24.76,0,0,0-.06,3.44Z"/><path class="cls-1" d="M91.24,46.56c-.32,0-.8-.51-1.15-1.24S89.26,44,88.88,44c-.67-.1-2-2.46-2.08-3.61A8.09,8.09,0,0,0,86,38a6.47,6.47,0,0,0-1-1.66c-.1,0-.16.41-.16,1,0,.73-.16.95-.61.95-1.08,0-1,.52.32,1.79a9.5,9.5,0,0,1,1.88,2.62,14.48,14.48,0,0,0,1.73,2.68c1.4,1.63,1.88,3.86,1,4.56-.57.42-.57.45.29.77a11.83,11.83,0,0,0,1.76.54,18.54,18.54,0,0,1,2.1.64,3.8,3.8,0,0,0,1.37.35,9.87,9.87,0,0,0,.2-2c.06-2.17-.48-2.68-1.06-1-.19.64-.48,1.15-.64,1.15-.38,0-.73-1.18-.47-1.59S91.84,46.56,91.24,46.56Z"/><path class="cls-1" d="M81.82,48c-.86.63-.44.89,1.12.63.8-.12,1.31-.38,1.31-.63C84.25,47.36,82.65,47.39,81.82,48Z"/><path class="cls-1" d="M40.18,47c1.37-.22,1.66-.58.8-.89a2.12,2.12,0,0,0-2.14.25C38,47,38.62,47.26,40.18,47Z"/><path class="cls-1" d="M77.23,8.59a4.19,4.19,0,0,1-1.47-1.18L74.68,6.23v1c0,1,1.59,5.65,4.59,13.44a66.37,66.37,0,0,1,2.3,7c.51,2.36,2.39,7.24,3,7.88.48.48.35-1.85-.16-2.55-.89-1.31-1.75-4.15-1.4-4.72A1.15,1.15,0,0,0,82.88,27a9.75,9.75,0,0,1-.83-2.39,19.37,19.37,0,0,0-1.47-3.86c-1.25-2.4-1.31-2.85-.64-3.74s.58-1.4-.16-1.4c-.41,0-.76-.32-1-.9s-.64-1.46-1-2.2a4,4,0,0,1-.42-2.62C77.58,8.94,77.52,8.59,77.23,8.59Z"/></g></g></svg>