<svg xmlns="http://www.w3.org/2000/svg" viewBox="0 0 36.61 36.59"><defs><style>.cls-1{fill:#fff;}</style></defs><g id="Layer_2" data-name="Layer 2"><g id="Footer"><g id="M5NFP0.tif"><path class="cls-1" d="M27.61,36.59H9.05a10.33,10.33,0,0,1-3.43-1A9.68,9.68,0,0,1,.06,26.83C0,21.16,0,15.48,0,9.81A9.2,9.2,0,0,1,.51,7a10.2,10.2,0,0,1,9.74-7C15.64,0,21,0,26.42,0a8.4,8.4,0,0,1,1.42.08,10,10,0,0,1,7.79,5.64,10.92,10.92,0,0,1,1,3.3V27.59c0,.19-.08.38-.11.56a10,10,0,0,1-5.56,7.45A10.68,10.68,0,0,1,27.61,36.59ZM18.34,3.34H10.41A9.13,9.13,0,0,0,9,3.42,6.76,6.76,0,0,0,3.37,9.81c0,5.62,0,11.24,0,16.85a6.22,6.22,0,0,0,.08,1,6.77,6.77,0,0,0,6.39,5.66c5.62,0,11.23,0,16.85,0a7.77,7.77,0,0,0,1-.08,6.76,6.76,0,0,0,5.65-6.4c0-5.61,0-11.23,0-16.84a7.61,7.61,0,0,0-.08-1,6.79,6.79,0,0,0-6.4-5.66C24,3.32,21.17,3.34,18.34,3.34Z"/><path class="cls-1" d="M8.88,18.32a9.45,9.45,0,1,1,9.44,9.44A9.46,9.46,0,0,1,8.88,18.32Zm15.57,0a6.12,6.12,0,1,0-6.13,6.11A6.1,6.1,0,0,0,24.45,18.32Z"/><path class="cls-1" d="M28.14,10.92a2.4,2.4,0,0,1-2.41-2.39,2.42,2.42,0,1,1,4.83,0A2.4,2.4,0,0,1,28.14,10.92Z"/></g></g></g></svg>