<svg xmlns="http://www.w3.org/2000/svg" viewBox="0 0 36.75 36.75"><defs><style>.cls-1{fill:#fff;}</style></defs><g id="Layer_2" data-name="Layer 2"><g id="Footer"><g id="oNMcBv.tif"><path class="cls-1" d="M1.51,0H33.43a3.33,3.33,0,0,1,3.32,3.33q0,15.94,0,31.91a2.31,2.31,0,0,1-2.39,1.51c-2.76,0-5.53,0-8.29,0-.56,0-.76-.16-.76-.74,0-4.19,0-8.39,0-12.58,0-.72,0-.75.78-.75h3.44c.39,0,.64-.1.64-.64a14.54,14.54,0,0,1,.48-3.95c.21-.79.11-1-.46-1-1.43,0-2.86,0-4.29,0-.43,0-.6-.16-.6-.6,0-1.07,0-2.14,0-3.21a2.19,2.19,0,0,1,2.45-2.45c.9,0,1.81,0,2.71,0,.48,0,.65-.2.59-.76a16.21,16.21,0,0,1,0-3.34c.07-.6-.09-.81-.58-.84a31.57,31.57,0,0,0-4.56-.11,6.36,6.36,0,0,0-6.11,6.05c-.13,1.49-.06,3-.09,4.46,0,1,0,.74-1.79.83-.79,0-1.57,0-2.36,0s-.84.22-.62,1.27a7.93,7.93,0,0,1,0,3.07c-.21,1.08,0,1.29.71,1.25a21.11,21.11,0,0,1,2.25,0c1.82.09,1.83-.22,1.83.86V35.83c0,.91,0,.91-.9.91H2.45C.76,36.74,0,36,0,34.29Q0,18.38,0,2.45A2.35,2.35,0,0,1,1.51,0Z"/></g></g></g></svg>