<svg xmlns="http://www.w3.org/2000/svg" viewBox="0 0 42.08 35.05"><defs><style>.cls-1{fill:#fff;}</style></defs><g id="Layer_2" data-name="Layer 2"><g id="Footer"><path class="cls-1" d="M41.08.87A10.11,10.11,0,0,1,38.56,5c1.35.37,2.29-.51,3.52-.53a10.8,10.8,0,0,1-2.87,3.4,3.19,3.19,0,0,0-1.16,2.47c-.6,9.43-4.58,17-13,21.61C17.13,36.25,9,36,.92,31.83A8.05,8.05,0,0,1,0,31.12c1.62-.16,3-.26,4.36-.44a17.48,17.48,0,0,0,6.51-2.36c.29-.17.76-.3.67-.72s-.54-.38-.87-.47a8.81,8.81,0,0,1-5.73-4.39c-.74-1.32-.65-1.48.84-1.49H7.33c-.39-.64-.92-.71-1.32-.93A8.59,8.59,0,0,1,1.4,14.25c-.32-1.5,0-1.75,1.39-1.36.53.14,1.07.26,2.05.49a13.21,13.21,0,0,1-2.18-2.5,8.72,8.72,0,0,1-.88-7.72c.46-1.37.83-1.46,1.81-.39a24.49,24.49,0,0,0,14,7.67c.54.1,1.1.14,1.65.19.84.06,1.14-.28,1.11-1.17A8.4,8.4,0,0,1,25.13,1C28.54-.7,31.81-.19,34.81,2.1a2,2,0,0,0,2.09.37Z"/></g></g></svg>